# xmcd
#
# Track frame offsets: 
#        150
#        14048
#        27417
#        37842
#        49084
#        65418
#        81104
#        91569
#
# Disc length: 1353 seconds
#
# Revision: 0
# Processed by: cddbd v1.5.2PL0 Copyright (c) Steve Scherf et al.
# Submitted via: ExactAudioCopyFreeDBPlugin 1.0
#
DISCID=58054708
DTITLE=João Paulo and Licelle - Amar é bom demais!
DYEAR=2012
DGENRE=Sertanejo
TTITLE0=Amar é bom demais!
TTITLE1=Vou seguir meu caminho
TTITLE2=Explodiu
TTITLE3=Sem compromisso
TTITLE4=Cara a cara
TTITLE5=Decepção
TTITLE6=Caindo fora
TTITLE7=Tenho medo de ti perder
EXTD=
EXTT0=
EXTT1=
EXTT2=
EXTT3=
EXTT4=
EXTT5=
EXTT6=
EXTT7=
PLAYORDER=
